<?xml version="1.0" encoding="utf-8"?>
<!-- Generator: Adobe Illustrator 16.0.0, SVG Export Plug-In . SVG Version: 6.00 Build 0)  -->
<!DOCTYPE svg PUBLIC "-//W3C//DTD SVG 1.1//EN" "http://www.w3.org/Graphics/SVG/1.1/DTD/svg11.dtd">
<svg version="1.1" id="Layer_1" xmlns="http://www.w3.org/2000/svg" xmlns:xlink="http://www.w3.org/1999/xlink" x="0px" y="0px"
	 width="64px" height="19.264px" viewBox="0 0 64 19.264" enable-background="new 0 0 64 19.264" xml:space="preserve">
<g>
	<path d="M6.913,10.785c0.133,0.019,0.267,0.033,0.399,0.053c0.761,0.116,1.511,0.275,2.19,0.659c1.247,0.7,1.914,1.759,1.95,3.198
		c0.011,0.453-0.022,0.902-0.15,1.343c-0.279,0.948-0.899,1.627-1.715,2.145c-0.708,0.447-1.497,0.672-2.32,0.795
		c-0.679,0.104-1.361,0.084-2.043,0.079c-1.639-0.012-3.278-0.022-4.917-0.034c-0.055,0-0.111,0-0.173,0c0-0.106,0-0.197,0-0.306
		c0.579,0,1.15,0,1.731,0c0-4.91,0-9.805,0-14.715c-0.573,0-1.145,0-1.728,0c0-0.105,0-0.198,0-0.312c0.049,0,0.103,0,0.157,0
		c1.38-0.01,2.759-0.018,4.139-0.028C5.12,3.656,5.809,3.616,6.494,3.64C7.43,3.675,8.338,3.86,9.153,4.353
		c1.181,0.715,1.684,1.777,1.584,3.142c-0.075,1.026-0.647,1.742-1.45,2.309c-0.678,0.477-1.449,0.73-2.254,0.891
		c-0.044,0.01-0.087,0.024-0.129,0.039C6.909,10.751,6.911,10.77,6.913,10.785z M4.642,18.716c0.538,0.055,1.059,0.094,1.581,0.034
		c0.617-0.068,1.143-0.299,1.495-0.842c0.242-0.373,0.379-0.787,0.464-1.221c0.179-0.921,0.202-1.851,0.138-2.783
		c-0.038-0.549-0.143-1.084-0.389-1.578c-0.397-0.803-1-1.328-1.934-1.367c-0.441-0.02-0.885-0.005-1.327-0.005
		c-0.007,0-0.015,0.008-0.028,0.018C4.642,13.546,4.642,16.124,4.642,18.716z M4.643,3.997c0,2.221,0,4.427,0,6.625
		c0.399,0,0.79,0.02,1.178-0.007c0.259-0.021,0.525-0.07,0.768-0.164c0.743-0.281,1.082-0.883,1.199-1.629
		c0.12-0.771,0.11-1.548,0.046-2.324c-0.037-0.451-0.107-0.896-0.27-1.323C7.327,4.55,6.896,4.153,6.238,4.008
		C5.712,3.894,5.183,3.924,4.643,3.997z"/>
	<path d="M12.611,3.997c-0.578,0-1.146,0-1.728,0c0-0.103,0-0.198,0-0.301c3.776,0,7.551,0,11.337,0c0,1.22,0,2.441,0,3.662
		c-0.22,0.045-0.225,0.042-0.287-0.16c-0.207-0.664-0.463-1.305-0.901-1.855c-0.534-0.672-1.184-1.169-2.059-1.305
		c-0.167-0.026-0.337-0.041-0.506-0.042c-0.989-0.003-1.978-0.002-2.967-0.002c-0.032,0-0.064,0-0.109,0c0,2.214,0,4.419,0,6.625
		c0.005,0.004,0.012,0.015,0.02,0.014c0.592-0.008,1.187,0.059,1.773-0.072c0.547-0.125,0.981-0.421,1.306-0.875
		c0.38-0.532,0.563-1.145,0.713-1.771c0.024-0.1,0.044-0.202,0.065-0.303c0.041-0.202,0.056-0.211,0.282-0.161
		c0,2.22,0,4.441,0,6.661c-0.225,0.057-0.238,0.045-0.288-0.166c-0.133-0.56-0.261-1.119-0.518-1.638
		c-0.191-0.386-0.441-0.722-0.792-0.979c-0.343-0.253-0.731-0.367-1.148-0.378c-0.452-0.014-0.904-0.006-1.356-0.006
		c-0.019,0-0.036,0.006-0.061,0.011c0,2.582,0,5.159,0,7.758c0.061,0,0.115,0,0.171,0c0.899,0,1.799-0.021,2.698,0.004
		c1.68,0.045,2.86-0.744,3.681-2.152c0.375-0.644,0.613-1.34,0.778-2.064c0.05-0.221,0.05-0.221,0.288-0.188
		c0,1.559,0,3.118,0,4.692c-4.038,0-8.079,0-12.127,0c0-0.092,0-0.18,0-0.287c0.575,0,1.15,0,1.733,0
		C12.611,13.806,12.611,8.911,12.611,3.997z"/>
	<path d="M48.461,14.154c0.084,0,0.152,0,0.236,0c0,1.617,0,3.233,0,4.856c-3.848,0-7.691,0-11.553,0c0-0.094,0-0.188,0-0.3
		c0.576,0,1.146,0,1.727,0c0-4.911,0-9.805,0-14.716c-0.579,0-1.15,0-1.73,0c0-0.107,0-0.199,0-0.299c2.08,0,4.153,0,6.238,0
		c0,0.092,0,0.184,0,0.294c-0.572,0-1.146,0-1.732,0c0,4.912,0,9.808,0,14.723c0.06,0,0.113,0,0.168,0
		c0.771,0,1.543-0.01,2.315,0.002c1.313,0.021,2.334-0.525,3.104-1.574c0.619-0.849,0.977-1.808,1.188-2.824
		C48.436,14.265,48.445,14.216,48.461,14.154z"/>
	<path d="M25.576,3.995c-0.58,0-1.149,0-1.728,0c0-0.101,0-0.193,0-0.296c2.07,0,4.144,0,6.229,0c0,0.092,0,0.187,0,0.293
		c-0.574,0-1.142,0-1.722,0c0,4.909,0,9.809,0,14.723c0.056,0,0.106,0,0.157,0c0.767-0.001,1.535-0.015,2.302,0.001
		c1.379,0.023,2.422-0.571,3.2-1.688c0.566-0.812,0.901-1.722,1.104-2.685c0.046-0.221,0.046-0.221,0.296-0.181
		c0,0.047,0,0.098,0,0.146c0,1.519-0.002,3.033,0.003,4.551c0,0.134-0.042,0.162-0.168,0.162c-3.752-0.004-7.506-0.004-11.259-0.004
		c-0.046,0-0.091,0-0.145,0c0-0.105,0-0.197,0-0.306c0.579,0,1.15,0,1.731,0C25.576,13.806,25.576,8.911,25.576,3.995z"/>
	<path d="M63.876,18.715c0,0.107,0,0.197,0,0.296c-2.123,0-4.244,0-6.371,0c0-0.096,0-0.188,0-0.295c0.58,0,1.156,0,1.748,0
		c-0.021-0.062-0.034-0.107-0.05-0.148c-0.698-1.828-1.396-3.656-2.092-5.483c-0.037-0.103-0.084-0.134-0.189-0.134
		c-1.427,0.004-2.854,0.002-4.281,0c-0.105,0-0.15,0.031-0.188,0.137c-0.665,1.828-1.334,3.656-2.003,5.484
		c-0.015,0.043-0.027,0.088-0.046,0.146c0.566,0,1.115,0,1.676,0c0,0.103,0,0.193,0,0.295c-1.038,0-2.072,0-3.115,0
		c0-0.092,0-0.182,0-0.296c0.139,0,0.282,0,0.426,0c0.194,0,0.389-0.008,0.58,0.003c0.105,0.005,0.135-0.047,0.164-0.13
		c0.407-1.132,0.818-2.265,1.229-3.396c1.444-3.988,2.888-7.979,4.331-11.966c0.037-0.105,0.084-0.144,0.199-0.142
		c0.369,0.007,0.371,0.001,0.504,0.354c1.932,5.036,3.859,10.075,5.787,15.114c0.045,0.123,0.101,0.17,0.235,0.167
		C62.9,18.709,63.382,18.715,63.876,18.715z M56.961,12.638c-0.744-1.944-1.48-3.881-2.22-5.817
		c-0.013,0.001-0.023,0.002-0.035,0.004c-0.699,1.936-1.399,3.871-2.104,5.813C54.062,12.638,55.503,12.638,56.961,12.638z"/>
	<path d="M6.039,0.469c0,0.146,0,0.275,0,0.421c0.152,0,0.292-0.004,0.431,0.004c0.039,0.004,0.077,0.037,0.115,0.059
		c-0.041,0.019-0.079,0.052-0.12,0.054C6.33,1.012,6.194,1.008,6.038,1.008c0,0.062,0,0.112,0,0.161
		c0,0.447-0.004,0.896,0.003,1.342C6.042,2.6,6.079,2.758,6.121,2.765c0.12,0.021,0.251-0.013,0.376-0.035
		c0.03-0.006,0.051-0.057,0.083-0.073c0.039-0.021,0.086-0.03,0.137-0.025C6.639,2.794,6.509,2.896,6.351,2.913
		C6.124,2.939,5.892,2.941,5.664,2.919C5.476,2.903,5.41,2.802,5.409,2.611C5.407,2.134,5.408,1.659,5.408,1.185
		c0-0.053,0-0.104,0-0.165c-0.27,0-0.531,0-0.813,0c0,0.049,0,0.098,0,0.147c0,0.442-0.002,0.885,0.002,1.327
		c0,0.102-0.046,0.238,0.09,0.283c0.148,0.049,0.301,0.033,0.419-0.09C5.154,2.636,5.194,2.57,5.287,2.653
		C5.198,2.792,5.068,2.895,4.91,2.911c-0.231,0.024-0.467,0.026-0.7,0.005C4.033,2.902,3.968,2.798,3.967,2.613
		c-0.001-0.476,0-0.95,0-1.426c0-0.053,0-0.104,0-0.18c-0.1,0-0.191,0.004-0.283-0.003C3.653,1.003,3.625,0.968,3.596,0.949
		c0.03-0.021,0.059-0.052,0.09-0.055c0.087-0.009,0.176-0.004,0.257-0.004c0.012-0.021,0.02-0.028,0.02-0.037
		c0.019-0.289,0.019-0.289,0.311-0.332C4.376,0.506,4.477,0.49,4.595,0.471c0,0.074,0,0.14,0,0.203c0,0.066,0,0.131,0,0.207
		c0.269,0,0.53,0,0.808,0c0-0.098,0-0.199,0-0.31C5.617,0.536,5.815,0.505,6.039,0.469z"/>
	<path d="M12.39,2.367c0,0.149,0.002,0.3,0,0.45c-0.001,0.122-0.069,0.175-0.203,0.175c-0.129,0-0.12-0.083-0.119-0.173
		c0.002-0.503,0.001-1.007,0.001-1.518c-0.034,0.002-0.076,0.014-0.112,0.005c-0.375-0.086-0.599,0.14-0.832,0.409
		c0.174-0.037,0.348,0.069,0.485-0.098c0.02-0.023,0.12,0.011,0.177,0.033c0.055,0.021,0.103,0.06,0.167,0.099
		c-0.153,0.141-0.093,0.312-0.099,0.469c-0.006,0.146,0.002,0.292,0.005,0.438c0.003,0.146-0.041,0.19-0.188,0.201
		c-0.147,0.01-0.12-0.095-0.125-0.182c-0.001-0.018-0.004-0.036-0.008-0.063c-0.146,0-0.288,0-0.444,0
		c-0.002,0.045-0.011,0.091-0.007,0.137c0.008,0.111-0.051,0.149-0.151,0.157c-0.105,0.009-0.152-0.022-0.148-0.142
		c0.008-0.276,0.002-0.554,0.002-0.839c-0.083,0.04-0.168,0.081-0.287,0.139c0.088-0.183,0.342-0.208,0.295-0.438
		c0.226,0.023,0.271-0.176,0.39-0.285c-0.003-0.014-0.005-0.027-0.008-0.041c-0.221,0-0.441,0-0.662,0
		c0-0.015,0.001-0.028,0.001-0.043c0.146,0,0.291,0,0.449,0c0-0.146,0-0.277,0-0.417c-0.131-0.006-0.259-0.012-0.385-0.018
		c0.001-0.015,0.002-0.03,0.003-0.045c0.124,0,0.248,0,0.384,0c0-0.162,0-0.314,0-0.498c0.144,0.021,0.271,0.041,0.365,0.054
		c-0.026,0.16-0.048,0.284-0.068,0.408c0.012,0.003,0.024,0.007,0.037,0.01c0.029-0.034,0.058-0.067,0.098-0.115
		c0.05,0.048,0.095,0.091,0.151,0.144c0.045-0.092,0.086-0.175,0.139-0.283c0.12,0.076,0.234,0.15,0.345,0.222
		c-0.086,0.092-0.166,0.165-0.235,0.247c-0.071,0.086-0.132,0.181-0.198,0.271c0.008,0.009,0.017,0.018,0.026,0.024
		c0.033-0.028,0.074-0.054,0.098-0.089c0.063-0.096,0.125-0.12,0.209-0.021c0.03,0.037,0.079,0.06,0.138,0.104
		c0-0.293,0-0.562,0-0.81c0.164,0.039,0.319,0.079,0.477,0.109c0.035,0.007,0.097-0.011,0.111-0.035
		c0.066-0.118,0.144-0.089,0.233-0.037c0.072,0.042,0.146,0.077,0.203,0.106c-0.154,0.251-0.299,0.488-0.44,0.718
		c0.123,0.107,0.236,0.192,0.333,0.295c0.184,0.192,0.262,0.42,0.189,0.687c-0.044,0.16-0.141,0.274-0.295,0.339
		C12.72,2.7,12.684,2.68,12.597,2.527c-0.041-0.071-0.113-0.126-0.171-0.188C12.415,2.349,12.403,2.36,12.39,2.367z M12.394,0.634
		c0,0.561,0,1.11,0,1.677c0.08,0,0.15,0,0.219,0c0.173,0.003,0.228-0.037,0.248-0.213c0.029-0.248-0.055-0.463-0.22-0.645
		c-0.068-0.074-0.083-0.142-0.064-0.24c0.037-0.188,0.056-0.383,0.082-0.58C12.553,0.634,12.475,0.634,12.394,0.634z M11.541,2.186
		c-0.156,0-0.298,0-0.442,0c0,0.121,0,0.232,0,0.352c0.15,0,0.293,0,0.442,0C11.541,2.417,11.541,2.305,11.541,2.186z M11.1,1.775
		c0,0.114,0,0.22,0,0.329c0.151,0,0.293,0,0.438,0c0-0.114,0-0.219,0-0.329C11.391,1.775,11.253,1.775,11.1,1.775z M11.293,1.165
		c0.009,0.003,0.018,0.005,0.026,0.008c0.065-0.105,0.13-0.211,0.203-0.33c-0.089,0-0.155,0-0.229,0
		C11.293,0.955,11.293,1.061,11.293,1.165z"/>
	<path d="M8.285,2.701C8,2.895,7.691,2.972,7.356,2.952C7.1,2.937,6.908,2.794,6.859,2.586c-0.055-0.23,0.039-0.43,0.266-0.57
		C7.413,1.838,7.738,1.82,8.063,1.803C8.136,1.799,8.21,1.802,8.296,1.802c0-0.221,0.009-0.427-0.005-0.632
		c-0.004-0.055-0.07-0.125-0.125-0.154C7.944,0.904,7.723,0.937,7.509,1.039c0,0.021-0.002,0.031,0.002,0.038
		c0.061,0.101,0.144,0.204,0.012,0.309C7.415,1.472,7.118,1.457,7.045,1.365C6.98,1.28,6.995,1.186,7.068,1.121
		c0.08-0.069,0.173-0.134,0.273-0.166c0.39-0.123,0.787-0.128,1.179-0.001c0.3,0.097,0.376,0.213,0.376,0.529
		c0,0.376,0,0.752,0,1.128c0,0.159,0.076,0.207,0.225,0.146c0.051-0.021,0.107-0.034,0.165-0.036
		C9.028,3.038,8.502,3.024,8.285,2.701z M8.298,2.182C8.3,1.966,8.283,1.939,8.095,1.911c-0.167-0.023-0.33,0.003-0.472,0.103
		C7.461,2.126,7.444,2.291,7.474,2.468C7.496,2.6,7.561,2.71,7.702,2.745c0.172,0.042,0.327,0.01,0.449-0.131
		C8.261,2.488,8.307,2.339,8.298,2.182z"/>
	<path d="M2.256,2.232C2.163,2.631,1.889,2.875,1.448,2.94c-0.36,0.052-0.696-0.014-0.975-0.266C0.168,2.402,0.06,2.057,0.16,1.665
		C0.27,1.24,0.576,1.007,0.989,0.906c0.309-0.075,0.617-0.049,0.917,0.056C1.963,0.982,2.02,1.009,2.07,1.041
		c0.091,0.062,0.154,0.142,0.129,0.261C2.173,1.416,2.082,1.463,1.98,1.469c-0.096,0.009-0.2,0.005-0.29-0.025
		C1.635,1.425,1.578,1.355,1.562,1.296c-0.009-0.038,0.053-0.097,0.09-0.141c0.022-0.028,0.056-0.047,0.084-0.07
		c-0.177-0.217-0.67-0.18-0.803,0.064C0.872,1.261,0.83,1.397,0.823,1.524c-0.015,0.271-0.012,0.546,0,0.817
		c0.01,0.201,0.051,0.406,0.271,0.487c0.245,0.09,0.494,0.067,0.691-0.109c0.122-0.108,0.216-0.258,0.297-0.402
		C2.127,2.238,2.159,2.197,2.256,2.232z"/>
	<path d="M20.363,0.394c0.172,0.033,0.347,0.068,0.521,0.104c0.003,0.012,0.007,0.024,0.01,0.036
		c-0.193,0.129-0.107,0.302-0.08,0.458c0.112,0.65,0.42,1.172,1.028,1.479c0.055,0.027,0.109,0.054,0.164,0.081
		c0.003,0.002,0.005,0.008,0.018,0.03C21.825,2.6,21.662,2.673,21.566,2.87c-0.646-0.436-0.819-1.076-0.854-1.792
		c-0.037,0.597-0.162,1.146-0.687,1.513c-0.207,0.145-0.43,0.253-0.689,0.28c0.02-0.016,0.038-0.036,0.061-0.048
		c0.536-0.283,0.815-0.74,0.883-1.328C20.321,1.142,20.333,0.785,20.363,0.394z"/>
	<path d="M3.43,0.887c0,0.627,0,1.255,0,1.878C3.568,2.848,3.744,2.72,3.85,2.884c-0.491,0-0.981,0-1.473,0
		c0.002-0.09,0.002-0.09,0.166-0.091c0.079,0,0.158,0,0.246,0c0-0.603,0-1.188,0-1.781c-0.133-0.018-0.267-0.035-0.4-0.057
		c-0.003,0-0.001-0.034-0.001-0.068C2.735,0.887,3.076,0.887,3.43,0.887z"/>
	<path d="M13.911,2.964c-0.048-0.116-0.098-0.235-0.152-0.369c0.297-0.073,0.459-0.293,0.623-0.543
		c-0.268-0.032-0.527,0.026-0.773-0.031c0.001-0.014,0.002-0.027,0.004-0.04c0.355,0,0.71,0,1.066,0
		c0.155,0,0.311-0.011,0.466,0.002c0.176,0.014,0.323-0.013,0.418-0.182c0.043-0.077,0.104-0.083,0.172-0.018
		c0.076,0.073,0.157,0.139,0.235,0.208c-0.005,0.014-0.011,0.028-0.016,0.042c-0.399,0-0.798,0-1.233,0
		c0.068,0.063,0.106,0.101,0.141,0.133c-0.199,0.138-0.392,0.271-0.615,0.426c0.375,0,0.708,0,1.039,0
		c0.012-0.015,0.023-0.028,0.035-0.044c-0.102-0.083-0.206-0.167-0.32-0.259c0.292-0.068,0.731,0.19,0.785,0.438
		c0.036,0.161-0.012,0.27-0.132,0.297c-0.125,0.027-0.212-0.039-0.258-0.197c-0.008-0.031-0.017-0.062-0.029-0.111
		c-0.245,0.039-0.486,0.073-0.725,0.113C14.402,2.871,14.164,2.918,13.911,2.964z"/>
	<path d="M16.775,1.369c-0.138,0.135-0.254,0.249-0.379,0.371c0.204-0.466,0.403-0.919,0.615-1.402
		c0.121,0.056,0.263,0.117,0.392,0.174c-0.127,0.174-0.233,0.317-0.344,0.47c0.036,0.028,0.067,0.052,0.095,0.074
		c0,0.016,0.003,0.024,0,0.033c-0.021,0.072-0.063,0.146-0.063,0.217c0,0.48,0.012,0.959,0.013,1.439
		c0,0.057-0.025,0.15-0.063,0.165c-0.073,0.028-0.164,0.021-0.244,0.008c-0.02-0.003-0.04-0.086-0.04-0.132
		c0.004-0.423,0.011-0.846,0.018-1.271C16.775,1.477,16.775,1.435,16.775,1.369z"/>
	<path d="M14.854,0.596c-0.385,0.438-0.835,0.82-1.373,1.09c-0.008-0.01-0.017-0.019-0.025-0.026c0.034-0.032,0.065-0.066,0.1-0.095
		c0.394-0.326,0.696-0.726,0.92-1.182c0.041-0.082,0.081-0.101,0.162-0.071c0.118,0.042,0.238,0.079,0.357,0.118
		c-0.01,0.01-0.02,0.019-0.03,0.028c0.023,0.062,0.033,0.131,0.072,0.18c0.241,0.312,0.57,0.48,0.95,0.56
		c0.055,0.011,0.109,0.024,0.185,0.042c-0.08,0.06-0.154,0.099-0.206,0.156c-0.052,0.057-0.082,0.133-0.128,0.213
		c-0.234-0.085-0.441-0.215-0.591-0.411C15.101,1.01,14.985,0.801,14.854,0.596z"/>
	<path d="M17.818,2.194c-0.184-0.043-0.377,0.036-0.55-0.036c0-0.016,0.002-0.029,0.003-0.044c0.179,0,0.358,0,0.549,0
		c0-0.178,0-0.344,0-0.532c0.149,0.019,0.284,0.037,0.376,0.049c-0.02,0.18-0.036,0.325-0.053,0.479
		c0.188,0.024,0.349,0.052,0.45-0.136c0.049-0.092,0.123-0.086,0.195-0.013c0.062,0.062,0.125,0.121,0.175,0.212
		c-0.262,0-0.523,0-0.795,0c0,0.192,0,0.367,0,0.55c0.251,0.028,0.499,0.059,0.64-0.25c0.118,0.104,0.212,0.188,0.308,0.272
		c-0.006,0.016-0.013,0.03-0.02,0.046c-0.644,0.006-1.287,0.006-1.93,0.011c0-0.022,0-0.046,0-0.069c0.213,0,0.427,0,0.651,0
		C17.818,2.548,17.818,2.377,17.818,2.194z"/>
	<path d="M17.277,0.944c0.178,0,0.354,0,0.541,0c0-0.185,0-0.36,0-0.564c0.146,0.019,0.28,0.033,0.379,0.045
		c-0.019,0.188-0.035,0.347-0.051,0.5c0.256,0.092,0.403-0.034,0.533-0.222c0.104,0.095,0.196,0.177,0.285,0.259
		c-0.007,0.014-0.013,0.029-0.02,0.043c-0.129,0-0.259,0-0.387,0c-0.127,0-0.253,0-0.389,0c0,0.166,0,0.324,0,0.497
		c0.118,0,0.241,0.015,0.357-0.006c0.057-0.01,0.107-0.083,0.147-0.138c0.069-0.096,0.136-0.103,0.217-0.019
		c0.06,0.062,0.122,0.123,0.173,0.203c-0.637,0.021-1.265,0.03-1.894,0.021c0-0.02,0-0.038,0-0.058c0.211,0,0.424,0,0.647,0
		c0-0.165,0-0.32,0-0.486c-0.173-0.051-0.368,0.037-0.544-0.035C17.273,0.969,17.275,0.956,17.277,0.944z"/>
	<path d="M3.109,0.27c0.188-0.003,0.344,0.1,0.34,0.224C3.446,0.615,3.28,0.719,3.103,0.713C2.93,0.706,2.788,0.609,2.786,0.493
		C2.783,0.371,2.927,0.272,3.109,0.27z"/>
	<path d="M8.381,0.235C8.111,0.365,7.86,0.515,7.588,0.61C7.44,0.661,7.259,0.618,7.089,0.608C7.498,0.43,7.859,0.097,8.381,0.235z"
		/>
	<path d="M15.491,1.527c-0.167,0.064-1.421,0.052-1.514-0.021c0.261,0,0.506-0.004,0.75,0.001c0.154,0.004,0.297,0.01,0.377-0.161
		c0.034-0.074,0.1-0.073,0.163-0.018C15.339,1.392,15.41,1.455,15.491,1.527z"/>
</g>
</svg>
